<svg width="48" height="48" viewBox="0 0 48 48" fill="none" xmlns="http://www.w3.org/2000/svg">
<path d="M15.9969 4.7998C9.82252 4.7998 4.80005 9.82693 4.80005 16.0029V32.0029C4.80005 38.1773 9.82717 43.1998 16.0032 43.1998H32.0032C38.1776 43.1998 43.2 38.1727 43.2 31.9967V15.9967C43.2 9.82228 38.1729 4.7998 31.9969 4.7998H15.9969ZM35.2 11.1998C36.0832 11.1998 36.8 11.9166 36.8 12.7998C36.8 13.683 36.0832 14.3998 35.2 14.3998C34.3168 14.3998 33.6 13.683 33.6 12.7998C33.6 11.9166 34.3168 11.1998 35.2 11.1998ZM24 14.3998C29.2944 14.3998 33.6 18.7054 33.6 23.9998C33.6 29.2942 29.2944 33.5998 24 33.5998C18.7056 33.5998 14.4 29.2942 14.4 23.9998C14.4 18.7054 18.7056 14.3998 24 14.3998ZM24 17.5998C22.3027 17.5998 20.6748 18.2741 19.4746 19.4743C18.2743 20.6746 17.6 22.3024 17.6 23.9998C17.6 25.6972 18.2743 27.3251 19.4746 28.5253C20.6748 29.7255 22.3027 30.3998 24 30.3998C25.6974 30.3998 27.3253 29.7255 28.5255 28.5253C29.7258 27.3251 30.4 25.6972 30.4 23.9998C30.4 22.3024 29.7258 20.6746 28.5255 19.4743C27.3253 18.2741 25.6974 17.5998 24 17.5998Z" fill="white"/>
</svg>
