<svg width="48" height="48" viewBox="0 0 48 48" fill="none" xmlns="http://www.w3.org/2000/svg">
<path d="M38.4 6.4H9.60002C7.83202 6.4 6.40002 7.832 6.40002 9.6V38.4C6.40002 40.168 7.83202 41.6 9.60002 41.6H38.4C40.168 41.6 41.6 40.168 41.6 38.4V9.6C41.6 7.832 40.168 6.4 38.4 6.4ZM17.5264 35.2H12.8064V20.0128H17.5264V35.2ZM15.1184 17.8416C13.5968 17.8416 12.3664 16.608 12.3664 15.0896C12.3664 13.5712 13.5984 12.3392 15.1184 12.3392C16.6352 12.3392 17.8688 13.5728 17.8688 15.0896C17.8688 16.608 16.6352 17.8416 15.1184 17.8416ZM35.2064 35.2H30.4896V27.8144C30.4896 26.0528 30.4576 23.7872 28.0368 23.7872C25.5808 23.7872 25.2032 25.7056 25.2032 27.6864V35.2H20.4864V20.0128H25.0144V22.088H25.0784C25.7088 20.8944 27.248 19.6352 29.544 19.6352C34.3232 19.6352 35.2064 22.7808 35.2064 26.8704V35.2Z" fill="#43302E"/>
</svg>
