<svg width="160" height="259" viewBox="0 0 160 259" fill="none" xmlns="http://www.w3.org/2000/svg">
<path d="M42.7217 54.7348C41.7737 54.5456 40.8239 55.0495 40.2667 55.8547L40.1419 56.0749C39.9067 56.3375 39.7041 56.6406 39.5575 56.9785C39.2174 57.7567 39.0962 58.7184 39.0691 59.5738C39.0455 60.3114 39.1052 61.049 39.2138 61.777C39.2084 62.2848 39.212 62.7926 39.2391 63.2966C39.2807 64.0651 39.4942 64.8665 39.9338 65.4883C40.5344 66.336 41.6018 66.8187 42.586 66.5715C43.6154 66.3128 44.4205 65.5906 44.8456 64.5556C45.117 63.8933 45.1749 63.1808 45.2038 62.4702C45.2888 62.0531 45.3395 61.6264 45.372 61.2247C45.4987 59.736 45.4354 57.9228 44.7949 56.5576C44.3698 55.6443 43.6841 54.926 42.7217 54.7348Z" fill="#43302E"/>
<path d="M82.8029 63.2946C82.8446 64.0632 83.058 64.8645 83.4976 65.4863C84.0983 66.3339 85.1657 66.8167 86.1498 66.5695C87.1792 66.3108 87.9825 65.5886 88.4076 64.5536C88.679 63.8913 88.7369 63.1788 88.7658 62.4682C88.8508 62.0511 88.9015 61.6243 88.9341 61.2227C89.0607 59.7339 88.9974 57.9208 88.357 56.5556C87.9318 55.6481 87.2462 54.9298 86.2837 54.7386C85.3375 54.5494 84.3859 55.0533 83.8287 55.8585L83.7057 56.0787C83.4705 56.3413 83.2679 56.6444 83.1214 56.9823C82.7794 57.7605 82.66 58.7221 82.6329 59.5775C82.6094 60.3152 82.6691 61.0528 82.7776 61.7807C82.7704 62.2828 82.774 62.7907 82.8029 63.2946Z" fill="#43302E"/>
<path d="M69.9781 72.2252C69.0627 73.3374 68.3571 74.3763 67.0943 75.0926C65.8442 75.8032 64.4458 76.2068 63.0274 76.2415C61.4878 76.2782 59.9609 75.9326 58.4811 75.5136C57.6796 75.2876 56.9035 74.9691 56.16 74.5809C55.3748 74.1735 54.682 73.7506 53.7901 73.7409C53.4536 73.7371 53.0791 74.0055 53.1641 74.4265C53.5711 76.425 55.8 77.6898 57.3522 78.6166C59.2301 79.7385 61.4245 80.1749 63.5611 80.0938C65.3576 80.0243 67.2047 79.4952 68.7841 78.5741C70.4901 77.5797 72.31 76.0929 73.0952 74.1329C73.9364 72.0359 71.2915 70.6302 69.9781 72.2252Z" fill="#43302E"/>
<path d="M159.242 79.5802C158.468 76.147 157.666 72.7215 156.877 69.2921C155.273 62.3079 153.693 55.3159 152.114 48.3239C150.565 41.4633 149.12 34.5659 147.466 27.7342C146.925 25.4982 146.017 23.1038 143.7 22.4801C141.348 21.8487 139.418 23.5653 138.439 25.7106C137.523 27.7149 137.205 30.0784 137.239 32.5056C134.102 26.2822 129.73 20.6785 124.405 15.9748C113.198 6.06705 97.8168 0.0038619 80.8689 0C63.9228 0.00193095 48.5417 6.06705 37.3324 15.9748C26.1303 25.8689 19.0783 39.7081 19.0819 55.0494C19.0801 70.3908 26.1303 84.2299 37.3324 94.1241C40.1383 96.6054 43.2066 98.8434 46.4938 100.807C46.3943 100.863 46.2966 100.921 46.2043 100.991C45.8714 101.242 45.5566 101.525 45.2943 101.86L45.5621 101.572C44.8999 102.112 44.2812 102.752 43.8289 103.503C43.5069 104.038 43.2084 104.611 43.0184 105.217C41.7756 105.291 40.5327 105.364 39.2898 105.436C36.4929 105.6 33.5097 106.123 30.7291 105.609C28.1673 105.136 26.3872 103.333 24.6703 101.373C22.5482 98.9515 20.4605 96.4934 18.351 94.0566C16.3791 91.7781 14.4379 89.4667 12.4207 87.2345C11.489 86.2034 10.5555 85.1761 9.58946 84.1836C8.99245 83.5696 8.40449 82.9208 7.7532 82.3724C7.38233 82.0615 7.03315 81.8703 6.67495 81.6927C6.48137 81.3509 6.16478 81.2215 5.8301 81.2524L5.54063 81.0883C5.26926 80.9145 4.88213 81.1597 5.02867 81.515L5.06121 81.6077C4.88573 81.7777 4.75547 81.9978 4.71024 82.2507C4.11504 85.5681 4.43709 88.9589 4.54925 92.3129C4.66504 95.7925 4.82966 99.2701 4.97801 102.748C5.12274 106.148 5.02686 109.659 5.41039 113.038C5.50266 113.843 5.72518 114.569 6.03816 115.226C4.55829 115.531 3.15623 116.326 2.08884 117.508C-0.263016 120.113 -0.523543 124.185 0.780834 127.412C1.47011 129.119 2.56102 130.586 3.89797 131.799C3.95948 132.386 4.03725 132.965 3.97755 133.577C3.86358 134.74 3.60487 135.873 3.38054 137.016C3.17611 138.049 3.02416 139.073 3.02416 140.131C3.02597 141.38 3.31541 142.388 3.68447 143.558C4.41535 145.868 6.47414 147.389 8.37191 148.571C10.7129 150.031 13.11 151.39 15.4818 152.79C16.636 153.472 17.7938 154.148 18.9517 154.822C19.8671 155.355 20.9146 156.2 21.9928 156.461C23.6482 157.313 25.4446 157.859 27.2971 157.805C27.6662 157.793 28.0244 157.593 28.3211 157.305C29.7974 157.293 31.2827 157.141 32.7589 156.948C32.0895 158.954 31.6011 161.045 31.1524 163.098C30.5011 166.071 30.0163 169.097 29.8987 172.154C29.6906 177.541 30.6241 183.027 33.2202 187.706C35.6372 192.062 39.165 194.802 43.1993 196.492C42.6421 205.44 42.7362 214.455 42.6584 223.417C42.6023 229.783 42.5354 236.149 42.4703 242.516C42.2839 242.471 42.0903 242.44 41.8805 242.448C37.8299 242.572 33.8009 243.035 29.8281 243.892C26.8593 244.534 23.4492 245.165 21.233 247.579C19.0222 249.987 19.1923 253.526 21.6563 255.677C24.0208 257.743 27.592 258.643 30.5717 258.911C33.8932 259.209 37.2093 258.753 40.3626 257.614C41.8371 257.081 43.2102 256.337 44.5345 255.469C45.1532 255.061 45.9329 254.634 46.3798 254.001C47.0075 253.111 46.8176 251.904 46.814 250.865C46.785 242.027 46.7778 233.189 46.7724 224.351C46.7669 215.455 46.9225 206.507 46.4956 197.615C50.9623 198.845 55.8053 199.089 60.3372 198.971C63.9934 198.876 67.6225 198.413 71.2046 197.681C71.1774 199.301 71.2914 200.94 71.3584 202.528C71.4669 205.144 71.617 207.753 71.7799 210.365C72.0983 215.453 72.4167 220.541 72.7351 225.63C73.3791 235.931 74.11 246.229 74.8029 256.529C74.8717 257.55 75.7817 258.315 76.6645 258.467C80.6862 259.16 84.7802 258.915 88.6843 257.668C91.9136 256.635 96.6806 254.673 97.2415 250.541C97.795 246.461 94.2184 244.856 91.1266 244.227C88.9177 243.777 86.6943 243.396 84.4672 243.064C82.4157 242.757 80.1308 242.193 78.0449 242.5C77.6071 236.667 77.1638 230.835 76.6934 225.006C76.2828 219.931 75.8739 214.859 75.465 209.784C75.2552 207.183 75.0308 204.586 74.7667 201.989C74.5985 200.34 74.4628 198.658 74.1661 197.019C75.2733 196.739 76.3786 196.455 77.4732 196.119C82.2094 194.667 87.1683 192.786 90.8969 189.212C94.8444 185.431 96.3405 180.497 96.27 174.919C96.1867 168.458 95.4975 161.964 95.0723 155.521C94.0737 140.349 93.0678 125.18 92.0511 110.008C92.0312 109.713 91.9624 109.464 91.8738 109.238C92.024 109.427 92.2465 109.574 92.5486 109.637C98.4518 110.871 105.14 109.562 111.025 108.604C117.12 107.614 123.163 106.179 129.096 104.399C135.086 102.603 140.981 100.46 146.732 97.9242C151.148 95.9778 157.275 93.9484 159.318 88.8198C160.503 85.8635 159.922 82.5906 159.242 79.5802ZM42.3907 251.22C37.3559 254.329 29.9945 255.374 24.8639 252.12C22.0923 250.363 29.6743 248.625 30.4631 248.45C34.407 247.573 38.4088 247.092 42.4323 246.941C42.416 248.366 42.4069 249.793 42.3907 251.22ZM86.0466 248.003C87.1266 248.158 92.9448 248.395 92.9828 249.929C93.0081 250.954 90.678 251.925 90.005 252.236C88.6879 252.842 87.3329 253.316 85.9308 253.642C83.5934 254.188 81.2669 254.331 78.9187 254.125C78.7396 251.765 78.5623 249.403 78.3868 247.044C80.8291 247.716 83.6025 247.654 86.0466 248.003ZM141.735 29.837C141.84 28.9025 142.019 28.1359 142.417 27.294C142.524 27.0681 142.67 26.9696 142.725 26.9174C142.922 27.0932 143.117 27.852 143.164 27.9988C144.062 30.8276 144.559 33.8766 145.243 36.7749C146.285 41.1987 147.327 45.6226 148.367 50.0444C143.526 44.7652 140.899 37.277 141.735 29.837ZM23.536 55.0514C23.5378 41.303 29.8209 28.8059 40.1745 19.6358C50.5227 10.4793 64.9215 4.75206 80.8707 4.75399C96.8199 4.75206 111.217 10.4793 121.567 19.6358C131.922 28.8059 138.204 41.303 138.205 55.0514C138.202 68.7997 131.921 81.2969 121.567 90.4689C111.219 99.6254 96.8199 105.353 80.8707 105.351C64.9215 105.353 50.5245 99.6254 40.1745 90.4689C29.8191 81.2988 23.5378 68.7997 23.536 55.0514ZM47.1957 104.223C47.4327 104.132 47.6715 104.028 47.9049 103.928C48.5254 103.659 48.9885 102.958 49.0374 102.248C50.6077 103.09 52.2269 103.866 53.884 104.584C52.0423 104.692 50.2006 104.8 48.3589 104.909C47.6516 104.949 46.946 104.992 46.2387 105.032C46.5408 104.74 46.8574 104.468 47.1957 104.223ZM4.65418 124.637C3.97033 121.941 5.79392 118.508 8.67767 120.016C9.90425 120.657 10.9029 119.951 11.3063 118.918C14.7274 119.703 19.3243 120.047 20.692 123.677C21.5152 125.859 20.3067 128.373 18.5989 129.642C16.4153 131.266 13.4121 131.137 10.9734 130.341C8.31222 129.476 5.42848 127.692 4.65418 124.637ZM31.3062 153.039C31.3062 152.698 31.3007 152.354 31.3062 152.016C31.317 151.141 31.3279 150.265 31.3351 149.39C31.3532 147.42 31.3731 145.451 31.3966 143.481C31.4419 139.646 31.1017 135.856 30.9932 132.033C30.966 131.098 29.5748 131.16 29.4771 132.052C29.0538 135.875 28.4098 139.64 28.1384 143.491C28.0063 145.373 27.8706 147.254 27.7331 149.135C27.6373 150.467 27.3568 152.039 27.4184 153.48C26.427 152.989 25.4338 152.504 24.4568 151.983C23.46 151.452 22.4704 150.917 21.3741 150.742L21.2113 150.556C21.0792 150.402 20.9508 150.243 20.8277 150.081C20.6052 149.79 20.3827 149.515 20.1167 149.26L19.9268 149.087C19.7224 148.907 19.4908 148.795 19.2357 148.745C18.7111 148.596 18.2606 148.575 17.7793 148.83C16.5401 148.119 15.3027 147.407 14.0616 146.7C12.0951 145.578 9.92777 144.578 8.2489 142.973C7.41671 142.178 6.85044 141.541 6.71114 140.424C6.57365 139.326 6.76541 138.208 6.92461 137.124C7.05667 136.227 7.22854 135.149 7.27196 134.07C10.693 135.754 14.7364 136.2 18.0833 135.122C23.9448 133.232 27.7549 125.452 23.6373 119.819C21.8571 117.382 19.0765 116.147 16.3556 115.388C14.9807 115.004 13.593 114.785 12.2 114.503C10.2643 114.113 9.53339 113.571 9.34524 111.396C8.9219 106.532 8.70119 101.639 8.39364 96.7657C8.18559 93.4715 8.14578 90.0247 7.72968 86.6861C8.53474 87.8312 9.36332 88.9569 10.21 90.0634C12.1928 92.6585 14.2443 95.1997 16.2615 97.7659C19.7567 102.213 23.3985 108.587 28.9073 110.333C29.1171 110.398 29.3288 110.446 29.5405 110.501C29.4482 111.34 29.4084 112.188 29.3614 113.046C29.28 114.521 29.2329 115.996 29.1823 117.473L29.0285 121.905C28.9814 123.28 28.7264 125.114 29.8498 126.097C30.1863 126.392 30.7037 126.359 31.0402 126.089C32.1655 125.182 31.9665 123.303 31.9701 121.972C31.9737 120.541 31.9755 119.113 31.9791 117.682C31.9828 116.23 31.9918 114.78 31.9647 113.327C31.9502 112.515 31.9574 111.692 31.9176 110.877C33.7648 111.01 35.6481 110.856 37.4698 110.755C40.8565 110.568 44.2414 110.358 47.6263 110.159L64.3987 109.174C64.2015 110.333 64.2376 111.578 64.1671 112.721C64.0549 114.556 63.9427 116.392 63.8306 118.228C63.6225 121.636 63.4145 125.044 63.2064 128.455C62.9911 131.994 62.774 135.533 62.5588 139.073C62.4556 140.778 62.3634 142.483 62.2476 144.186C62.1662 145.385 62.1825 147.055 61.4172 148.04C60.6248 149.058 59.163 149.15 58.0323 149.324C56.585 149.546 55.1341 149.743 53.685 149.95C50.3038 150.431 46.9207 150.9 43.5395 151.379C40.3988 151.823 37.2582 152.255 34.1158 152.68C33.1822 152.806 32.2415 152.916 31.3062 153.039ZM90.8842 181.467C89.218 185.53 85.2922 187.879 81.6233 189.496C76.9178 191.568 71.8866 192.852 66.85 193.574C61.7827 194.3 56.5977 194.447 51.5177 193.773C47.1233 193.19 42.5535 191.813 39.2826 188.451C35.6191 184.688 34.1772 179.098 33.9764 173.822C33.8552 170.644 34.2424 167.438 34.7923 164.32C35.2537 161.709 35.9484 159.124 36.3084 156.496C39.639 156.094 42.9678 155.687 46.2948 155.26C49.9239 154.797 53.5493 154.285 57.173 153.771C59.7691 153.404 62.6402 153.144 64.4493 150.857C66.2964 148.523 66.2295 145.234 66.4122 142.352C66.6619 138.42 66.9097 134.489 67.1594 130.555L67.9065 118.759C68.0223 116.925 68.1381 115.09 68.2557 113.254C68.3461 111.825 68.5542 110.377 68.3986 108.973C72.4293 109.709 76.6012 110.097 80.8743 110.097C83.1791 110.097 85.4532 109.975 87.6947 109.755C87.6079 110.045 87.5609 110.363 87.5862 110.719C88.4057 122.747 89.2289 134.774 90.0611 146.8C90.4772 152.813 90.8951 158.826 91.3112 164.839C91.6694 170.088 92.9321 176.469 90.8842 181.467ZM155.195 88.2521C154.01 89.99 152.009 90.9496 150.238 91.8224C147.75 93.0505 145.219 94.1879 142.67 95.2596C137.724 97.3411 132.675 99.162 127.55 100.676C121.818 102.369 116.004 103.671 110.135 104.683C108.769 104.918 107.401 105.131 106.034 105.329C112.899 102.599 119.121 98.797 124.405 94.1261C135.608 84.2319 142.659 70.3928 142.656 55.0514C142.656 53.0625 142.533 51.1007 142.303 49.1697C144.17 52.0565 146.506 54.5957 149.219 56.5846C149.473 56.7699 149.731 56.8819 149.986 56.9418C151.15 61.8947 152.308 66.8495 153.456 71.8082C154.102 74.6022 154.763 77.3925 155.398 80.1885C155.987 82.7953 156.812 85.8809 155.195 88.2521Z" fill="#43302E"/>
<path d="M19.2175 148.743L19.2338 148.749L19.2627 148.756C18.8738 148.646 18.8593 148.643 19.2175 148.743Z" fill="#43302E"/>
</svg>
