<svg width="166" height="262" viewBox="0 0 166 262" fill="none" xmlns="http://www.w3.org/2000/svg">
<path d="M119.37 64.2424C119.402 64.9732 119.461 65.706 119.749 66.3872C120.2 67.4537 121.051 68.1944 122.138 68.4605C123.18 68.7148 124.311 68.2183 124.944 67.3464C125.409 66.7069 125.635 65.8828 125.679 65.0923C125.709 64.574 125.712 64.0517 125.707 63.5294C125.822 62.7807 125.885 62.022 125.859 61.2634C125.83 60.3836 125.703 59.3946 125.341 58.5942C125.185 58.2467 124.972 57.9369 124.722 57.6648L124.591 57.4384C124 56.6103 122.996 56.0919 121.994 56.2865C120.976 56.4832 120.249 57.222 119.801 58.1554C119.124 59.5594 119.056 61.4242 119.191 62.9554C119.227 63.3745 119.281 63.8134 119.37 64.2424Z" fill="#43302E"/>
<path d="M73.2725 64.2424C73.3042 64.9732 73.3637 65.706 73.6514 66.3872C74.1019 67.4537 74.9533 68.1944 76.0408 68.4605C77.0826 68.7148 78.2138 68.2183 78.8489 67.3464C79.3132 66.7069 79.5394 65.8828 79.5831 65.0923C79.6129 64.574 79.6169 64.0517 79.6109 63.5294C79.726 62.7807 79.7895 62.022 79.7637 61.2634C79.7339 60.3836 79.6069 59.3946 79.2457 58.5942C79.0889 58.2467 78.8766 57.9369 78.6266 57.6648L78.4956 57.4384C77.9042 56.6103 76.9001 56.0919 75.8979 56.2865C74.8799 56.4832 74.1535 57.222 73.705 58.1554C73.0283 59.5594 72.9608 61.4242 73.0958 62.9554C73.1295 63.3745 73.1831 63.8134 73.2725 64.2424Z" fill="#43302E"/>
<path d="M94.4171 80.8132C96.0881 81.7606 98.0428 82.3047 99.9439 82.3742C102.204 82.4576 104.526 82.0088 106.515 80.8549C108.158 79.9017 110.515 78.6009 110.946 76.5454C111.037 76.1124 110.64 75.8364 110.283 75.8404C109.34 75.8483 108.606 76.2832 107.777 76.7043C106.989 77.1035 106.167 77.4311 105.32 77.6635C103.754 78.0925 102.139 78.4499 100.51 78.4122C99.0092 78.3765 97.5288 77.9614 96.2072 77.2306C94.8716 76.4918 94.1254 75.4233 93.157 74.2814C91.7658 72.641 88.9697 74.0887 89.8588 76.2455C90.6863 78.2613 92.6112 79.7905 94.4171 80.8132Z" fill="#43302E"/>
<path d="M165.515 186.916C162.83 183.543 160.016 180.286 157.055 177.174C155.585 175.629 154.097 174.116 152.519 172.69C151.729 171.975 150.929 171.278 150.108 170.605C149.675 170.251 149.223 169.872 148.735 169.586C151.604 168.007 153.598 165.691 152.442 162.438C151.177 158.882 146.669 158.04 143.488 157.795C142.462 157.716 141.416 157.706 140.372 157.762C140.221 157.545 140.064 157.338 139.925 157.148C139.37 156.393 138.796 155.652 138.225 154.912C137.669 154.191 137.113 153.47 136.558 152.749C135.972 151.988 135.343 151.249 134.839 150.427C134.24 149.454 132.795 149.534 132.091 150.272L132.085 150.278L131.981 150.272C131.418 150.282 130.852 150.288 130.291 150.338C129.08 150.445 127.874 150.608 126.667 150.741C126.391 150.771 126.117 150.799 125.841 150.828C125.732 150.548 125.615 150.27 125.506 149.99C122.96 143.427 120.521 136.819 118.187 130.172C116.052 124.089 114.258 117.748 111.908 111.715C111.855 110.499 111.803 109.284 111.756 108.071C111.74 107.646 111.644 107.284 111.496 106.984C117.483 104.319 122.948 100.885 127.697 96.8061C139.55 86.63 147.012 72.3966 147.008 56.618C147.01 40.8395 139.55 26.606 127.697 16.4299C115.838 6.23992 99.5609 0.00397194 81.6291 0C63.6973 0.00198597 47.4205 6.23992 35.5612 16.4299C23.7079 26.606 16.2462 40.8395 16.2482 56.618C16.2462 72.3966 23.7079 86.63 35.5612 96.8061C44.0032 104.059 54.6877 109.294 66.6085 111.719C62.7447 120.846 60.2264 130.713 57.4858 140.239C55.5132 147.097 53.6756 153.99 51.8737 160.895C45.315 161.61 38.7562 162.325 32.1995 163.044C27.0081 163.614 21.8187 164.186 16.6272 164.758C13.9025 165.058 11.1738 165.326 8.45509 165.676C5.89312 166.003 3.28752 166.2 0.906134 167.304C0.737453 167.382 0.620382 167.493 0.523142 167.614C0.199671 167.721 -0.0761686 168.039 0.0190868 168.396C0.269132 169.33 0.699759 170.15 1.18993 170.938C1.0272 173.274 1.2554 175.703 1.30699 177.995C1.37645 180.966 1.45782 183.937 1.56499 186.908C1.7932 193.243 2.07499 199.578 2.35877 205.911C2.6366 212.102 3.01367 218.29 3.34508 224.478C3.51177 227.572 3.68239 230.662 3.89473 233.753C4.0912 236.626 3.74789 240.126 5.28984 242.61C6.07768 243.879 7.83792 243.325 8.3777 242.171C9.58625 239.589 8.72102 235.82 8.58409 233.032C8.43922 230.071 8.26064 227.116 8.0741 224.158C7.67522 217.845 7.32198 211.528 6.86753 205.218C6.423 199.048 5.97845 192.879 5.47836 186.713C5.22832 183.633 4.95447 180.554 4.66672 177.478C4.61512 176.922 4.57344 176.358 4.52979 175.794C4.85921 176.249 5.18468 176.706 5.52403 177.156C7.86175 180.253 10.1895 183.355 12.5372 186.443C14.8154 189.44 17.1789 192.371 19.5028 195.328C21.8901 198.367 24.1683 201.56 26.7203 204.45L27.0954 204.769C26.7858 206.11 26.8632 207.641 26.8374 208.924C26.7838 211.49 26.7818 214.06 26.7541 216.628C26.7005 221.628 26.6528 226.627 26.5715 231.626C26.4941 236.493 26.4981 241.361 26.4782 246.231C26.4584 251.045 25.6825 256.423 27.4764 260.945C27.9646 262.176 29.7308 262.134 30.213 260.923C31.9812 256.468 31.2191 251.172 31.1993 246.427C31.1795 241.474 31.1795 236.521 31.1001 231.57C31.0207 226.631 30.9731 221.694 30.9195 216.755C30.8917 214.223 30.8759 211.689 30.8382 209.156C30.8203 207.971 30.8897 206.551 30.6774 205.254C34.1641 205.457 37.8355 204.889 41.2468 204.678C45.6543 204.406 50.0579 204.092 54.4615 203.761C63.1357 203.105 71.8059 202.388 80.4721 201.618C86.3105 201.099 92.1449 200.519 97.9793 199.953C98.8445 204.279 98.6898 209.097 98.3961 212.515C97.5983 221.769 95.1732 230.78 94.5699 240.064C94.5223 240.809 94.7525 241.722 95.4153 242.145C99.4141 244.693 103.865 246.223 108.584 246.326C112.418 246.409 117.679 246.036 119.219 241.623C120.741 237.262 117.397 233.371 113.859 231.626C109.763 229.604 104.784 228.833 100.257 229.517C101.416 222.46 102.851 215.44 102.845 208.253C102.843 205.707 102.621 202.609 102.004 199.57C109.981 198.78 117.955 197.942 125.923 197.068C125.451 207.109 121.617 217.783 124.081 227.713C125.923 235.133 131.128 240.849 138.322 242.823C141.305 243.641 145.23 244.11 148.121 242.686C152.082 240.735 149.955 236.628 147.929 234.134C142.759 227.777 135.546 222.921 127.699 221.011C127.542 212.938 130.191 203.846 130.453 196.581C131.235 196.494 132.019 196.418 132.801 196.331C134.389 196.152 135.978 195.978 137.568 195.801C137.502 196.869 137.548 197.958 137.516 198.867C137.431 201.286 137.397 203.707 137.351 206.128C137.306 208.549 137.26 210.97 137.215 213.391C137.171 215.766 136.828 218.405 137.244 220.747C137.717 223.402 141.279 223.301 141.743 220.689C142.16 218.35 141.803 215.71 141.759 213.333C141.713 210.912 141.668 208.493 141.622 206.072C141.576 203.653 141.545 201.234 141.459 198.815C141.424 197.799 141.491 196.557 141.38 195.376C147.506 194.699 153.632 194.017 159.748 193.267C159.731 193.729 159.723 194.19 159.695 194.627C159.552 196.909 159.512 199.191 159.465 201.479C159.367 206.06 159.369 210.642 159.35 215.224C159.33 219.674 159.328 224.127 159.336 228.577C159.344 232.752 158.514 237.973 160.675 241.673C161.181 242.539 162.719 242.511 163.219 241.657C165.345 238.026 164.541 232.929 164.547 228.837C164.555 224.25 164.549 219.662 164.529 215.075C164.509 210.656 164.513 206.237 164.418 201.818C164.37 199.534 164.348 197.251 164.204 194.971C164.14 193.95 164.184 192.788 163.993 191.737C164.184 191.336 164.269 190.878 164.247 190.417C165.589 190.039 166.66 188.353 165.515 186.916ZM142.279 234.607C143.4 235.717 144.472 236.92 145.41 238.201L145.601 238.453L145.653 238.6C144.99 238.728 144.293 238.787 143.632 238.791C140.763 238.813 137.871 237.975 135.417 236.432C131.265 233.822 129.173 230.234 128.268 226.15C133.472 227.956 138.225 230.593 142.279 234.607ZM141.265 162.196C142.434 162.131 148.687 162.105 148.536 164.071C148.403 165.803 143.335 166.806 142.164 167.092C139.687 167.697 136.768 168.253 134.357 167.115C133.325 166.629 132.537 165.862 131.894 164.959C132.18 164.945 132.488 164.867 132.811 164.704C135.524 163.346 138.231 162.369 141.265 162.196ZM130.769 153.702C131.321 153.587 131.864 153.43 132.408 153.279L132.438 153.269L132.553 153.384C132.71 153.559 132.865 153.734 133.021 153.909C133.333 154.258 133.646 154.608 133.96 154.955C134.603 155.672 135.244 156.391 135.887 157.108C136.222 157.482 136.562 157.849 136.899 158.22C134.841 158.655 132.845 159.382 131.045 160.451C130.602 160.713 130.295 161.068 130.098 161.459C129.918 161.019 129.741 160.582 129.566 160.157C128.775 158.228 128.016 156.284 127.245 154.346C128.419 154.129 129.6 153.946 130.769 153.702ZM115.421 133.543C117.423 139.485 119.543 145.381 121.71 151.259C120.942 151.339 120.176 151.42 119.41 151.502L119.307 151.526C115.611 143.369 113.843 134.689 112.893 125.829C113.718 128.407 114.558 130.979 115.421 133.543ZM20.9593 56.616C20.9613 42.4759 27.6094 29.6227 38.5657 20.1914C49.5161 10.7739 64.753 4.8835 81.6271 4.88549C98.5032 4.8835 113.738 10.7739 124.691 20.1914C135.647 29.6227 142.295 42.4759 142.297 56.616C142.295 70.7561 135.647 83.6094 124.691 93.0427C113.74 102.46 98.5032 108.351 81.6291 108.349C78.0709 108.349 74.5921 108.073 71.2046 107.572C70.7283 107.072 69.9842 106.925 69.3987 107.296C57.4501 105.207 46.7974 100.123 38.5657 93.0447C27.6094 83.6113 20.9613 70.7581 20.9593 56.616ZM81.6291 113.234C90.4621 113.232 98.8902 111.713 106.588 108.958C107.106 121.954 107.749 135.167 111.986 147.538C114.07 153.623 117.622 158.866 120.049 164.768C122.16 169.904 122.136 175.316 117.284 178.628C113.2 181.414 107.93 182.123 103.21 182.92C97.5546 183.873 91.7321 184.606 86.0386 183.547C73.58 181.23 68.7617 168.653 67.2733 156.975C66.2672 149.077 66.6502 141.059 67.6206 133.179C68.1187 129.144 68.7815 125.132 69.5297 121.138C70.0635 118.29 70.8097 115.413 71.2701 112.519C74.6437 112.984 78.1027 113.234 81.6291 113.234ZM61.3655 141.044C61.8319 139.322 62.322 137.604 62.8202 135.886C62.072 141.969 61.7703 148.098 62.1831 154.232C62.3042 156.028 62.4986 157.863 62.7646 159.706C60.6332 159.938 58.5019 160.172 56.3686 160.405C57.9581 153.929 59.6271 147.474 61.3655 141.044ZM57.0711 200.041C52.2865 200.444 47.4999 200.815 42.7153 201.217C38.6808 201.554 34.2773 201.459 30.2368 202.301C30.1674 202.14 30.084 201.977 29.9689 201.816C27.7939 198.754 25.2875 195.906 22.9438 192.979C20.5208 189.954 18.1334 186.892 15.6647 183.907C13.2655 181.007 10.8484 178.124 8.44123 175.23C7.26839 173.822 6.06975 172.458 4.82944 171.113C4.47621 170.732 4.12497 170.347 3.77173 169.965L3.67847 169.606C5.30773 169.644 6.94689 169.467 8.57616 169.324C11.3068 169.086 14.0335 168.766 16.7582 168.476C22.0806 167.908 27.405 167.34 32.7274 166.77C38.7682 166.122 44.8089 165.471 50.8517 164.82C50.4409 166.416 50.0142 168.009 49.6074 169.608C43.9695 169.219 38.1153 170.003 32.7532 171.679C30.5623 172.364 28.3079 173.528 27.3474 175.834C26.3731 178.171 27.0656 180.646 28.677 182.453C32.1737 186.379 37.8513 186.375 42.4514 184.953C47.4404 183.412 51.6177 179.881 54.0983 175.149C54.6262 174.144 54.2234 173.147 53.4891 172.511L53.5327 172.396C54.138 169.701 54.7631 167.012 55.4061 164.327C58.0772 164.039 60.7503 163.751 63.4214 163.465C65.4952 173.508 70.2044 183.142 79.8014 187.186C82.7959 188.447 85.9632 189.066 89.1701 189.287C89.3904 189.63 89.7139 189.908 90.1485 190.002C93.534 190.731 95.6217 193.114 96.8819 196.18C83.6315 197.63 70.3652 198.921 57.0711 200.041ZM49.0637 174.422C47.3689 176.783 45.2118 178.65 42.5109 179.802C39.6473 181.023 35.7021 181.758 32.9536 179.867C29.0878 177.208 35.3727 175.953 37.2699 175.526C41.1972 174.642 45.0927 174.39 49.0637 174.422ZM109.757 234.769C111.474 235.296 117.36 237.741 114.788 240.561C113.976 241.45 112.224 241.464 111.14 241.564C109.596 241.707 108.06 241.651 106.524 241.444C103.901 241.093 101.401 240.227 99.043 239.021C99.17 237.419 99.3406 235.822 99.553 234.231L99.9261 234.221C103.248 233.812 106.513 233.777 109.757 234.769ZM100.964 195.721C100.061 193.114 98.7711 190.768 96.9474 189.15C97.3919 189.11 97.8364 189.076 98.277 189.029C104.094 188.403 110.224 187.521 115.729 185.392C118.104 184.473 120.313 183.148 122.136 181.438C124.563 185.019 125.601 188.822 125.881 192.758C117.582 193.803 109.277 194.792 100.964 195.721ZM130.326 192.186C129.848 187.118 128.189 181.907 124.46 178.66C125.399 177.214 126.119 175.598 126.475 173.757C127.743 167.207 124.23 160.997 121.269 155.47C121.892 155.351 122.517 155.235 123.141 155.116C123.621 156.397 124.081 157.686 124.567 158.963C125.893 162.438 127.026 166.395 129.614 169.121C132.085 171.725 135.482 172.535 138.907 172.329C140.731 172.219 143.851 171.661 146.671 170.547C146.917 171.328 147.46 171.957 147.994 172.575C148.655 173.339 149.318 174.1 149.983 174.859C151.394 176.467 152.819 178.066 154.216 179.687C156.532 182.372 158.738 185.158 160.874 188C150.697 189.483 140.515 190.874 130.326 192.186Z" fill="#43302E"/>
</svg>
